# This file uses centimeters as units for non-parametric coordinates.

mtllib carpet.mtl
g default
v -9.034098 -0.045867 8.117219
v 9.038789 -0.045867 8.117219
v -9.034098 0.045867 8.117219
v 9.038789 0.045867 8.117219
v -9.034098 0.045867 -2.796076
v 9.038789 0.045867 -2.796076
v -9.034098 -0.045867 -2.796076
v 9.038789 -0.045867 -2.796076
vt 0.001890 0.668527
vt 0.331370 0.668527
vt 0.331370 0.998007
vt 0.001890 0.998007
vt 0.338705 0.668528
vt 0.668185 0.668528
vt 0.668185 0.998008
vt 0.338705 0.998008
vt 0.338705 0.001992
vt 0.668185 0.001992
vt 0.668185 0.331472
vt 0.338705 0.331472
vt 0.282358 0.335259
vt 0.611838 0.335259
vt 0.611838 0.664739
vt 0.282358 0.664739
vt 0.001891 0.001992
vt 0.331370 0.001992
vt 0.331370 0.331472
vt 0.001891 0.331472
vt 0.617660 0.335259
vt 0.947140 0.335259
vt 0.947140 0.664740
vt 0.617660 0.664740
vn 0.000000 0.000000 1.000000
vn 0.000000 0.000000 1.000000
vn 0.000000 0.000000 1.000000
vn 0.000000 0.000000 1.000000
vn 0.000000 1.000000 0.000000
vn 0.000000 1.000000 0.000000
vn 0.000000 1.000000 0.000000
vn 0.000000 1.000000 0.000000
vn 0.000000 0.000000 -1.000000
vn 0.000000 0.000000 -1.000000
vn 0.000000 0.000000 -1.000000
vn 0.000000 0.000000 -1.000000
vn 0.000000 -1.000000 0.000000
vn 0.000000 -1.000000 0.000000
vn 0.000000 -1.000000 0.000000
vn 0.000000 -1.000000 0.000000
vn 1.000000 0.000000 0.000000
vn 1.000000 0.000000 0.000000
vn 1.000000 0.000000 0.000000
vn 1.000000 0.000000 0.000000
vn -1.000000 0.000000 0.000000
vn -1.000000 0.000000 0.000000
vn -1.000000 0.000000 0.000000
vn -1.000000 0.000000 0.000000
s off
g pasted__pCube15 group
usemtl initialShadingGroup
f 1/17/1 2/18/2 4/19/3 3/20/4
f 3/9/5 4/10/6 6/11/7 5/12/8
f 5/21/9 6/22/10 8/23/11 7/24/12
f 7/13/13 8/14/14 2/15/15 1/16/16
f 2/1/17 8/2/18 6/3/19 4/4/20
f 7/5/21 1/6/22 3/7/23 5/8/24
