# This file uses centimeters as units for non-parametric coordinates.

mtllib choppingboard.mtl
g default
v 2.373695 -0.116520 1.581392
v 2.373695 -0.116520 -1.581392
v 2.373695 0.116520 1.581392
v 2.373695 0.116520 -1.581392
v -2.373695 0.116520 1.581392
v -2.373695 0.116520 -1.581392
v -2.373695 -0.116520 1.581392
v -2.373695 -0.116520 -1.581392
v -1.851979 0.116520 1.581392
v -1.851979 -0.116520 1.581392
v -1.851979 -0.116520 -1.581392
v -1.851979 0.116520 -1.581392
v -2.143945 0.116520 1.581392
v -2.143945 -0.116520 1.581392
v -2.143945 -0.116520 -1.581392
v -2.143945 0.116520 -1.581392
v -2.373695 0.116520 0.652201
v -2.373695 -0.116520 0.652201
v -2.143945 -0.116520 0.652201
v -1.851979 -0.116520 0.652201
v 2.373695 -0.116520 0.652201
v 2.373695 0.116520 0.652201
v -1.851979 0.116520 0.652201
v -2.143945 0.116520 0.652201
v -2.373695 0.116520 -0.720460
v -2.373695 -0.116520 -0.720460
v -2.143945 -0.116520 -0.720460
v -1.851979 -0.116520 -0.720460
v 2.373695 -0.116520 -0.720460
v 2.373695 0.116520 -0.720460
v -1.851979 0.116520 -0.720460
v -2.143945 0.116520 -0.720460
vt 0.381421 0.311065
vt 0.653104 0.311065
vt 0.653104 0.616291
vt 0.381421 0.616291
vt 0.671875 0.311065
vt 0.671875 0.616291
vt 0.686647 0.311065
vt 0.686647 0.616291
vt 0.103602 0.311065
vt 0.375285 0.311065
vt 0.375285 0.616291
vt 0.103602 0.616291
vt 0.084831 0.311065
vt 0.084831 0.616291
vt 0.070059 0.311065
vt 0.070059 0.616291
vt 0.063924 0.616291
vt 0.045152 0.616291
vt 0.045152 0.311065
vt 0.063924 0.311065
vt 0.301608 0.925508
vt 0.282836 0.925508
vt 0.282836 0.620282
vt 0.301608 0.620282
vt 0.314019 0.001847
vt 0.403691 0.001847
vt 0.403691 0.273531
vt 0.314019 0.273531
vt 0.536161 0.001847
vt 0.536161 0.273531
vt 0.403691 0.292302
vt 0.314019 0.292302
vt 0.619245 0.001847
vt 0.619245 0.273531
vt 0.403691 0.307073
vt 0.314019 0.307073
vt 0.536161 0.292302
vt 0.619245 0.292302
vt 0.536161 0.307073
vt 0.619245 0.307073
vt 0.692782 0.344608
vt 0.782454 0.344608
vt 0.782454 0.616291
vt 0.692782 0.616291
vt 0.692782 0.325837
vt 0.782454 0.325837
vt 0.914923 0.344608
vt 0.914923 0.616291
vt 0.692782 0.311065
vt 0.782454 0.311065
vt 0.998008 0.344608
vt 0.998008 0.616291
vt 0.914923 0.311065
vt 0.914923 0.325837
vt 0.998008 0.325837
vt 0.998008 0.311065
vt 0.001992 0.001847
vt 0.091664 0.001847
vt 0.091664 0.307073
vt 0.001992 0.307073
vt 0.224133 0.001847
vt 0.224133 0.307073
vt 0.307218 0.001847
vt 0.307218 0.307073
vt 0.625852 0.001847
vt 0.715524 0.001847
vt 0.715524 0.307074
vt 0.625852 0.307074
vt 0.847993 0.001847
vt 0.847993 0.307074
vt 0.931078 0.001847
vt 0.931078 0.307074
vt 0.001992 0.620282
vt 0.134461 0.620282
vt 0.134461 0.925509
vt 0.001992 0.925509
vt 0.274981 0.925508
vt 0.142512 0.925508
vt 0.142512 0.620282
vt 0.274981 0.620282
vn 1.000000 0.000000 0.000000
vn 1.000000 0.000000 0.000000
vn 1.000000 0.000000 0.000000
vn 1.000000 0.000000 0.000000
vn 0.000000 1.000000 0.000000
vn 0.000000 1.000000 0.000000
vn 0.000000 1.000000 0.000000
vn 0.000000 1.000000 0.000000
vn -1.000000 0.000000 -0.000000
vn -1.000000 0.000000 -0.000000
vn -1.000000 0.000000 -0.000000
vn -1.000000 0.000000 -0.000000
vn 0.000000 -1.000000 0.000000
vn 0.000000 -1.000000 0.000000
vn 0.000000 -1.000000 0.000000
vn 0.000000 -1.000000 0.000000
vn 0.000000 0.000000 -1.000000
vn 0.000000 0.000000 -1.000000
vn 0.000000 0.000000 -1.000000
vn 0.000000 0.000000 -1.000000
vn -0.000000 0.000000 1.000000
vn -0.000000 0.000000 1.000000
vn -0.000000 0.000000 1.000000
vn -0.000000 0.000000 1.000000
vn -0.000000 0.000000 1.000000
vn -0.000000 0.000000 1.000000
vn 0.000000 -1.000000 0.000000
vn 0.000000 -1.000000 0.000000
vn 0.000000 0.000000 -1.000000
vn 0.000000 0.000000 -1.000000
vn -0.000000 1.000000 -0.000000
vn 0.000000 1.000000 0.000000
vn -0.000000 0.000000 1.000000
vn -0.000000 0.000000 1.000000
vn 0.000000 -1.000000 0.000000
vn 0.000000 -1.000000 0.000000
vn 0.000000 0.000000 -1.000000
vn 0.000000 0.000000 -1.000000
vn -0.000000 1.000000 -0.000000
vn 0.000000 1.000000 0.000000
vn -1.000000 0.000000 -0.000000
vn -1.000000 0.000000 -0.000000
vn 0.000000 -1.000000 0.000000
vn 0.000000 -1.000000 0.000000
vn 0.000000 -1.000000 0.000000
vn 0.000000 -1.000000 0.000000
vn 1.000000 0.000000 0.000000
vn 1.000000 0.000000 0.000000
vn 0.000000 1.000000 0.000000
vn -0.000000 1.000000 -0.000000
vn -0.000000 1.000000 -0.000000
vn -0.000000 1.000000 -0.000000
vn -1.000000 0.000000 -0.000000
vn -1.000000 0.000000 -0.000000
vn 0.000000 -1.000000 0.000000
vn 0.000000 -1.000000 0.000000
vn 0.000000 -1.000000 0.000000
vn 0.000000 -1.000000 0.000000
vn 1.000000 0.000000 0.000000
vn 1.000000 0.000000 0.000000
vn -0.000000 1.000000 -0.000000
vn -0.000000 1.000000 -0.000000
vn 0.000000 1.000000 0.000000
vn 0.000000 1.000000 0.000000
vn 0.000000 -0.000000 -1.000000
vn 0.000000 -0.000000 -1.000000
vn 0.000000 -0.000000 -1.000000
vn 0.000000 -0.000000 -1.000000
vn -1.000000 0.000000 -0.000000
vn -1.000000 0.000000 -0.000000
vn -1.000000 0.000000 -0.000000
vn -1.000000 0.000000 -0.000000
vn 1.000000 0.000000 0.000000
vn 1.000000 0.000000 0.000000
vn 1.000000 0.000000 0.000000
vn 1.000000 0.000000 0.000000
vn -0.000000 0.000000 1.000000
vn -0.000000 0.000000 1.000000
vn -0.000000 0.000000 1.000000
vn -0.000000 0.000000 1.000000
s 1
g pCube53
usemtl initialShadingGroup
f 1/57/1 21/58/2 22/59/3 3/60/4
s 2
f 3/25/5 22/26/6 23/27/7 9/28/8
s 3
f 5/65/9 17/66/10 18/67/11 7/68/12
s 4
f 10/41/13 20/42/14 21/43/15 1/44/16
s 5
f 2/1/17 11/2/18 12/3/19 4/4/20
s 6
f 10/9/21 1/10/22 3/11/23 9/12/24
f 14/13/25 10/9/21 9/12/24 13/14/26
s 4
f 14/45/27 19/46/28 20/42/14 10/41/13
s 5
f 12/3/19 11/2/18 15/5/29 16/6/30
s 2
f 9/28/8 23/27/7 24/31/31 13/32/32
s 6
f 7/15/33 14/13/25 13/14/26 5/16/34
s 4
f 7/49/35 18/50/36 19/46/28 14/45/27
s 5
f 16/6/30 15/5/29 8/7/37 6/8/38
s 2
f 13/32/32 24/31/31 17/35/39 5/36/40
s 3
f 17/66/10 25/69/41 26/70/42 18/67/11
s 4
f 19/46/28 18/50/36 26/53/43 27/54/44
f 21/43/15 20/42/14 28/47/45 29/48/46
s 1
f 22/59/3 21/58/2 29/61/47 30/62/48
s 2
f 23/27/7 22/26/6 30/29/49 31/30/50
f 17/35/39 24/31/31 32/37/51 25/39/52
s 3
f 25/69/41 6/71/53 8/72/54 26/70/42
s 4
f 27/54/44 26/53/43 8/56/55 15/55/56
f 28/47/45 27/54/44 15/55/56 11/51/57
f 29/48/46 28/47/45 11/51/57 2/52/58
s 1
f 30/62/48 29/61/47 2/63/59 4/64/60
s 2
f 31/30/50 30/29/49 4/33/61 12/34/62
f 32/37/51 31/30/50 12/34/62 16/38/63
f 25/39/52 32/37/51 16/38/63 6/40/64
s off
f 24/17/65 23/18/66 20/19/67 19/20/68
f 23/73/69 31/74/70 28/75/71 20/76/72
f 32/77/73 24/78/74 19/79/75 27/80/76
f 31/21/77 32/22/78 27/23/79 28/24/80
