# This file uses centimeters as units for non-parametric coordinates.

mtllib small_sofa.mtl
g default
v 13.219223 0.104267 0.550741
v 13.219223 0.104267 8.350863
v 13.288709 7.018948 0.621265
v 13.288709 7.018948 8.280339
v 14.716683 7.018948 0.621265
v 14.716683 7.018948 8.280339
v 14.786165 0.104267 0.550741
v 14.786165 0.104267 8.350863
v 14.786165 2.696146 0.550741
v 13.219223 2.696146 0.550741
v 13.219223 2.696146 8.350863
v 14.786165 2.696146 8.350863
v 9.510412 0.145806 0.596182
v 9.510412 0.147916 8.304586
v 9.510412 2.600692 8.304586
v 9.510412 2.601110 0.596182
v 13.270107 7.077640 2.332548
v 14.722321 7.077640 2.332548
v 14.829688 2.681454 2.275435
v 14.829688 0.045576 2.275435
v 13.162739 0.045576 2.275435
v 9.427669 0.087820 2.229995
v 9.526787 2.634191 2.229995
v 13.162523 2.725711 2.275435
v 13.270106 7.077639 6.626169
v 14.722321 7.077639 6.569223
v 14.829688 2.681454 6.626337
v 14.829688 0.045576 6.626337
v 13.162739 0.045576 6.626337
v 9.427669 0.089966 6.672614
v 9.526787 2.633789 6.672614
v 13.162523 2.725711 6.626337
v 13.219121 5.049316 0.550741
v 13.162523 5.014674 2.275435
v 9.510412 4.862759 0.596182
v 9.526787 4.835020 2.229995
v 13.162523 5.014674 6.626337
v 13.219121 5.049316 8.350863
v 9.526787 4.832988 6.672614
v 9.510412 4.860649 8.304586
v 13.219211 6.859371 0.550741
v 13.162727 6.915353 2.275435
v 13.162728 6.915353 6.626337
v 13.219210 6.859371 8.350863
v 14.786165 6.859371 8.350863
v 14.829688 6.915353 6.626337
v 14.829688 6.915353 2.275435
v 14.786165 6.859371 0.550740
v 9.677640 5.049240 8.350863
v 9.687828 5.014601 6.626337
v 9.687829 2.725711 6.626337
v 9.687829 2.725711 2.275435
v 9.687829 5.014603 2.275435
v 9.677641 5.049242 0.550741
v 9.677641 2.696146 0.550741
v 9.677641 0.104267 0.550741
v 9.597738 0.045576 2.275435
v 9.597737 0.045576 6.626337
v 9.677643 0.104267 8.350863
v 9.677641 2.696146 8.350862
v 14.722321 7.077639 0.708435
v 13.270107 7.077639 0.708435
v 13.162727 6.915353 0.708435
v 13.162631 5.064084 0.708435
v 9.597737 5.064008 0.708435
v 9.427669 4.874360 0.708435
v 9.427669 2.584804 0.708435
v 9.427669 0.087820 0.708435
v 9.597737 0.045576 0.708435
v 13.162739 0.045576 0.708435
v 14.829688 0.045576 0.708435
v 14.829688 2.681454 0.708435
v 14.829688 6.915353 0.708435
v 14.722321 7.077639 8.192711
v 14.829688 6.915353 8.192711
v 14.829688 2.681454 8.192711
v 14.829688 0.045576 8.192711
v 13.162739 0.045576 8.192712
v 9.597738 0.045576 8.192711
v 9.427669 0.089966 8.192712
v 9.427669 2.584379 8.192711
v 9.427669 4.872214 8.192711
v 9.597736 5.064006 8.192711
v 13.162631 5.064084 8.192711
v 13.162727 6.915353 8.192711
v 13.270107 7.077639 8.192711
v 14.722321 7.077639 6.782978
v 13.270107 7.077639 6.782977
v 13.162728 6.915353 6.782978
v 13.162631 5.064084 6.782978
v 9.597736 5.064006 6.782978
v 9.427669 4.872214 6.782978
v 9.427669 2.584379 6.782978
v 9.427669 0.089966 6.782979
v 9.597738 0.045576 6.782978
v 13.162739 0.045576 6.782978
v 14.829688 0.045576 6.782979
v 14.829688 2.681454 6.782979
v 14.829688 6.915353 6.782978
v 14.829688 0.045576 2.118435
v 14.829688 2.681454 2.118435
v 14.829688 6.915353 2.118435
v 14.722321 7.077639 2.118435
v 13.270107 7.077640 2.118435
v 13.162727 6.915353 2.118435
v 13.162631 5.064084 2.118435
v 9.597738 5.064008 2.118435
v 9.427669 4.874360 2.118435
v 9.427669 2.584804 2.118435
v 9.427669 0.087820 2.118435
v 9.597738 0.045576 2.118435
v 13.162739 0.045576 2.118435
v 9.645477 2.736335 2.504647
v 9.645477 2.736335 6.396957
v 9.645477 3.700856 2.504647
v 9.645477 3.700856 6.396957
v 13.103178 3.700856 2.504647
v 13.103178 3.700856 6.396957
v 13.103178 2.736335 2.504647
v 13.103178 2.736335 6.396957
v 9.576320 3.589876 2.375946
v 13.134447 3.589876 2.375946
v 13.134447 3.589876 6.525658
v 9.576320 3.589876 6.525658
v 9.576320 2.858316 2.375946
v 13.134447 2.858316 2.375946
v 13.134447 2.858316 6.525658
v 9.576320 2.858316 6.525658
v 9.511576 3.603533 2.582453
v 9.511576 2.845064 2.582453
v 9.581883 2.718596 2.707486
v 13.166772 2.718596 2.707486
v 13.199191 2.845064 2.582453
v 13.199191 3.603533 2.582453
v 13.166772 3.718596 2.707486
v 9.581883 3.718596 2.707486
v 9.511576 3.603533 6.323534
v 9.511576 2.845064 6.323534
v 9.581883 2.718596 6.198423
v 13.166772 2.718596 6.198423
v 13.199191 2.845064 6.323534
v 13.199191 3.603533 6.323534
v 13.166772 3.718596 6.198423
v 9.581883 3.718596 6.198423
vt 0.626608 0.648291
vt 0.695515 0.648291
vt 0.692460 0.655309
vt 0.629664 0.655309
vt 0.626608 0.465212
vt 0.695515 0.465212
vt 0.626604 0.568693
vt 0.692708 0.657890
vt 0.628846 0.657890
vt 0.626608 0.351233
vt 0.695515 0.351233
vt 0.470866 0.568690
vt 0.470866 0.465212
vt 0.470866 0.351233
vt 0.463512 0.461014
vt 0.463512 0.560397
vt 0.463512 0.353152
vt 0.459873 0.560905
vt 0.459873 0.460297
vt 0.459873 0.350604
vt 0.467352 0.348652
vt 0.218627 0.648291
vt 0.287534 0.648291
vt 0.284478 0.655309
vt 0.221682 0.655309
vt 0.218627 0.465212
vt 0.287534 0.465212
vt 0.287538 0.568693
vt 0.285296 0.657890
vt 0.221434 0.657890
vt 0.218627 0.351233
vt 0.287534 0.351233
vt 0.443276 0.465212
vt 0.443276 0.568690
vt 0.443276 0.351233
vt 0.450630 0.461032
vt 0.450630 0.560489
vt 0.450630 0.353059
vt 0.454269 0.460315
vt 0.454269 0.561000
vt 0.446790 0.348652
vt 0.454269 0.350509
vt 0.602327 0.841305
vt 0.606351 0.834223
vt 0.707006 0.834223
vt 0.699109 0.841305
vt 0.606351 0.681422
vt 0.707009 0.681422
vt 0.709179 0.838185
vt 0.700839 0.845664
vt 0.600155 0.845664
vt 0.822740 0.692862
vt 0.722085 0.692863
vt 0.718043 0.685781
vt 0.814753 0.685781
vt 0.722085 0.845664
vt 0.822743 0.845664
vt 0.715870 0.681422
vt 0.816478 0.681422
vt 0.824912 0.688901
vt 0.874559 0.998008
vt 0.874559 0.841538
vt 0.906729 0.841538
vt 0.906729 0.998008
vt 0.869194 0.996633
vt 0.869194 0.844579
vt 0.911610 0.844579
vt 0.911610 0.996633
vt 0.836949 0.837892
vt 0.836949 0.681422
vt 0.869119 0.681422
vt 0.869119 0.837892
vt 0.831585 0.834851
vt 0.831585 0.682797
vt 0.874000 0.682797
vt 0.874000 0.834851
vt 0.070403 0.276066
vt 0.006542 0.276066
vt 0.006542 0.266650
vt 0.070403 0.266650
vt 0.070403 0.338071
vt 0.006542 0.338071
vt 0.001820 0.276066
vt 0.001820 0.269162
vt 0.006542 0.077836
vt 0.070403 0.080340
vt 0.075125 0.276066
vt 0.075125 0.269162
vt 0.001820 0.338071
vt 0.075125 0.338071
vt 0.001820 0.077829
vt 0.006542 0.070940
vt 0.070403 0.070940
vt 0.075125 0.077829
vt 0.004304 0.345006
vt 0.007360 0.341904
vt 0.070155 0.341904
vt 0.073211 0.345006
vt 0.001820 0.070940
vt 0.006542 0.008947
vt 0.070403 0.008947
vt 0.075125 0.070940
vt 0.001820 0.008947
vt 0.075125 0.008947
vt 0.004303 0.001992
vt 0.007360 0.005093
vt 0.073211 0.001992
vt 0.070155 0.005093
vt 0.155413 0.276066
vt 0.082108 0.276066
vt 0.082108 0.269162
vt 0.155413 0.269162
vt 0.155413 0.338071
vt 0.082108 0.338071
vt 0.082108 0.077829
vt 0.155413 0.077829
vt 0.312185 0.276066
vt 0.312185 0.269162
vt 0.084022 0.345006
vt 0.152929 0.345006
vt 0.312185 0.338071
vt 0.082108 0.070940
vt 0.155413 0.070940
vt 0.312185 0.077829
vt 0.319664 0.276066
vt 0.319664 0.271160
vt 0.308672 0.345006
vt 0.319664 0.338071
vt 0.082108 0.008947
vt 0.155413 0.008947
vt 0.312185 0.070940
vt 0.319664 0.075794
vt 0.084022 0.001992
vt 0.152929 0.001992
vt 0.312185 0.008947
vt 0.319664 0.070940
vt 0.308671 0.001992
vt 0.319664 0.008947
vt 0.060221 0.350687
vt 0.060221 0.542019
vt 0.053140 0.544018
vt 0.053140 0.348652
vt 0.213023 0.350687
vt 0.213023 0.542019
vt 0.505256 0.669014
vt 0.505256 0.825782
vt 0.443262 0.825782
vt 0.443262 0.669014
vt 0.512210 0.828266
vt 0.512210 0.672528
vt 0.436374 0.825777
vt 0.436374 0.672976
vt 0.505256 0.661536
vt 0.443262 0.661536
vt 0.510175 0.665174
vt 0.594108 0.825777
vt 0.587204 0.825782
vt 0.587204 0.669014
vt 0.594108 0.672976
vt 0.525199 0.825782
vt 0.525199 0.669014
vt 0.518264 0.828266
vt 0.518264 0.672528
vt 0.587204 0.661536
vt 0.525199 0.661536
vt 0.520263 0.665174
vt 0.174211 0.675926
vt 0.177008 0.667195
vt 0.329062 0.667195
vt 0.331858 0.675926
vt 0.171119 0.670424
vt 0.173967 0.661536
vt 0.330437 0.661536
vt 0.333284 0.670424
vt 0.174211 0.829441
vt 0.331858 0.829441
vt 0.171119 0.834940
vt 0.177008 0.838361
vt 0.329062 0.838361
vt 0.173967 0.844021
vt 0.333284 0.834940
vt 0.330437 0.844021
vt 0.003245 0.562054
vt 0.006042 0.553323
vt 0.158096 0.553323
vt 0.160892 0.562054
vt 0.001820 0.556552
vt 0.004667 0.547664
vt 0.161137 0.547664
vt 0.163984 0.556552
vt 0.003245 0.715569
vt 0.160892 0.715569
vt 0.006042 0.724489
vt 0.158096 0.724489
vt 0.004667 0.730149
vt 0.001820 0.721068
vt 0.163984 0.721068
vt 0.161137 0.730149
vt 0.810925 0.615771
vt 0.701119 0.615771
vt 0.701119 0.610865
vt 0.813097 0.610865
vt 0.810925 0.677776
vt 0.701119 0.677776
vt 0.701214 0.415499
vt 0.813079 0.415499
vt 0.911610 0.677776
vt 0.911610 0.615771
vt 0.701214 0.410645
vt 0.810907 0.410645
vt 0.701214 0.348652
vt 0.810907 0.348652
vt 0.911515 0.410645
vt 0.911515 0.348652
vt 0.628101 0.276066
vt 0.512187 0.276066
vt 0.512187 0.269162
vt 0.628101 0.269162
vt 0.628101 0.338071
vt 0.512187 0.338071
vt 0.325999 0.276066
vt 0.325999 0.269162
vt 0.512187 0.077829
vt 0.628101 0.077829
vt 0.511541 0.345006
vt 0.625520 0.345006
vt 0.325999 0.338071
vt 0.325999 0.077829
vt 0.512187 0.070940
vt 0.628101 0.070940
vt 0.328461 0.345006
vt 0.325999 0.070940
vt 0.512187 0.008947
vt 0.628101 0.008947
vt 0.325999 0.008947
vt 0.511541 0.001992
vt 0.625520 0.001992
vt 0.328461 0.001992
vt 0.818221 0.276066
vt 0.736810 0.276066
vt 0.734637 0.269162
vt 0.818221 0.269162
vt 0.818221 0.338071
vt 0.736810 0.338071
vt 0.818221 0.077829
vt 0.633979 0.269162
vt 0.633979 0.077829
vt 0.734637 0.077829
vt 0.736161 0.345006
vt 0.815759 0.345006
vt 0.736810 0.070940
vt 0.818221 0.070940
vt 0.736810 0.008947
vt 0.818221 0.008947
vt 0.815759 0.001992
vt 0.736161 0.001992
vt 0.345301 0.670424
vt 0.345902 0.661536
vt 0.378072 0.661536
vt 0.378655 0.670424
vt 0.345301 0.834940
vt 0.378655 0.834940
vt 0.340241 0.829441
vt 0.340241 0.675926
vt 0.384217 0.675926
vt 0.384217 0.829441
vt 0.345902 0.844021
vt 0.378072 0.844021
vt 0.395649 0.670424
vt 0.396232 0.661536
vt 0.428403 0.661536
vt 0.429003 0.670424
vt 0.395649 0.834940
vt 0.429003 0.834940
vt 0.390088 0.829441
vt 0.390088 0.675926
vt 0.396232 0.844021
vt 0.428403 0.844021
vn -0.101819 0.994803 -0.000000
vn -0.998534 0.054125 -0.000031
vn -0.999777 0.021123 -0.000005
vn -0.119867 0.992790 0.000000
vn 0.101820 0.994803 -0.000000
vn 0.119173 0.992874 0.000000
vn 0.833998 0.551767 -0.000000
vn 0.834000 0.551765 -0.000000
vn 0.000000 -1.000000 0.000000
vn -0.000000 -1.000000 0.000000
vn -0.000000 -1.000000 -0.000000
vn -0.000000 -1.000000 -0.000000
vn 0.000000 0.011948 0.999929
vn 0.000000 0.011949 0.999929
vn 0.000000 0.404224 0.914660
vn 0.000000 0.404224 0.914660
vn 0.116408 0.012566 -0.993122
vn -0.052564 0.012904 -0.998534
vn -0.053119 0.577733 -0.814496
vn 0.056454 0.573162 -0.817495
vn 0.115549 -0.068070 -0.990967
vn -0.000000 -0.055559 -0.998455
vn -0.000000 -0.000000 -1.000000
vn 0.099502 -0.000000 -0.995037
vn -0.998999 0.000912 0.044717
vn -0.999470 0.001453 0.032530
vn -0.999204 0.038445 0.010666
vn -0.998821 0.037550 0.030764
vn -0.000000 0.000000 1.000000
vn 0.000000 0.000000 1.000000
vn 0.000000 -0.000000 1.000000
vn -0.000000 0.000000 1.000000
vn 1.000000 0.000000 0.000000
vn 1.000000 0.000000 0.000000
vn 1.000000 0.000000 -0.000000
vn 1.000000 0.000000 -0.000000
vn -0.241070 -0.970508 0.000000
vn -0.011153 -0.999938 0.000000
vn -0.013324 -0.999911 0.000012
vn -0.246590 -0.969120 0.000227
vn -0.010321 0.000000 0.999947
vn -0.012030 0.000000 0.999928
vn -0.266702 -0.000000 0.963779
vn -0.266702 -0.000000 0.963779
vn -0.026961 0.947842 0.317599
vn -0.052057 0.998316 0.025598
vn -0.996106 0.068634 0.055332
vn -0.743656 0.057246 0.666107
vn -0.011817 -0.000000 -0.999930
vn -0.010356 -0.074349 -0.997179
vn -0.270319 -0.056671 -0.961102
vn -0.262220 0.000000 -0.965008
vn -0.106399 0.994324 0.000000
vn 0.117431 0.993081 0.000000
vn 0.834000 0.551765 -0.000000
vn 1.000000 0.000000 -0.000000
vn 1.000000 0.000000 -0.000000
vn 0.000000 -1.000000 0.000000
vn 0.000000 -1.000000 0.000000
vn -0.013362 -0.999911 0.000013
vn -0.247056 -0.969001 0.000227
vn -0.999204 0.038452 -0.010667
vn -0.998820 0.037565 -0.030774
vn -0.029233 0.999573 0.000002
vn -0.029172 0.999574 0.000002
vn -0.494910 0.868944 0.000040
vn -0.494910 0.868944 0.000040
vn -0.999687 0.025012 0.000005
vn 0.103493 0.994630 -0.000000
vn -0.101788 0.994806 0.000000
vn -0.103828 0.993950 0.035826
vn 0.103055 0.993965 0.037598
vn 0.960086 0.203782 0.191591
vn 0.834000 0.551765 -0.000000
vn 1.000000 0.000000 -0.000000
vn 1.000000 0.000000 -0.000000
vn 1.000000 0.000000 -0.000000
vn 1.000000 0.000000 -0.000000
vn 0.000000 -1.000000 0.000000
vn 0.000000 -1.000000 0.000000
vn 0.000000 -0.999518 0.031041
vn -0.000000 -0.999217 0.039554
vn -0.252551 -0.967584 0.000000
vn -0.011716 -0.999931 0.000000
vn -0.012542 -0.999496 0.029162
vn -0.257048 -0.965716 0.036332
vn -0.998998 0.000905 -0.044745
vn -0.999469 0.001441 -0.032562
vn -0.999154 0.000000 0.041122
vn -0.998536 0.000000 0.054090
vn -0.996388 0.067933 0.050948
vn -0.052772 0.998556 0.010061
vn -0.052622 0.998286 -0.025619
vn -0.996105 0.068634 -0.055352
vn -0.998582 0.053240 0.000030
vn -0.998125 0.053145 0.030376
vn -0.005867 -0.000000 -0.999983
vn -0.262220 0.000000 -0.965008
vn -0.271561 0.000000 0.962421
vn -0.015954 0.000000 0.999873
vn -0.005994 0.000000 0.999982
vn -0.271561 0.000000 0.962421
vn -0.006063 -0.000000 -0.999982
vn -0.016251 -0.000000 -0.999868
vn -0.276182 -0.000000 -0.961105
vn -0.276182 -0.000000 -0.961105
vn -0.005935 0.000000 0.999982
vn -0.266703 0.000000 0.963779
vn -1.000000 0.000055 -0.000039
vn -1.000000 0.000049 -0.000002
vn -1.000000 0.000049 0.000000
vn -1.000000 0.000049 0.000000
vn -1.000000 0.000049 0.000002
vn -0.999300 0.000052 0.037424
vn -1.000000 0.000055 0.000039
vn -0.000000 -0.000000 1.000000
vn 1.000000 0.000000 -0.000000
vn 1.000000 0.000000 -0.000000
vn 1.000000 0.000000 -0.000000
vn 1.000000 0.000000 -0.000000
vn 1.000000 0.000000 -0.000000
vn -0.012687 0.000001 -0.999920
vn -0.000022 0.999937 0.011189
vn -0.000022 0.999515 -0.031156
vn -0.000000 0.000000 -1.000000
vn -0.000000 0.000000 -1.000000
vn -0.000000 1.000000 -0.000000
vn -0.000000 1.000000 -0.000000
vn 0.000000 0.000000 1.000000
vn 0.000000 0.000000 1.000000
vn -0.000020 0.953880 0.300188
vn -0.000021 0.999515 0.031144
vn -0.103827 0.993950 -0.035812
vn 0.103055 0.993965 -0.037594
vn -0.998125 0.053147 -0.030363
vn -0.999299 0.000052 -0.037433
vn -0.052203 0.998586 -0.010026
vn -0.000021 0.999937 -0.011195
vn -0.000021 0.995643 -0.093243
vn -0.025542 0.993765 -0.108528
vn -0.996389 0.067930 -0.050929
vn -0.805155 0.073012 -0.588553
vn -0.804952 0.000000 -0.593340
vn -0.998537 0.000000 -0.054067
vn -0.804952 0.000000 -0.593340
vn -0.999154 0.000000 -0.041125
vn -0.011951 -0.999505 -0.029114
vn -0.245457 -0.968746 -0.035803
vn 0.000000 -0.999217 -0.039565
vn 0.124253 -0.990117 -0.065032
vn 0.963958 -0.000000 -0.266054
vn 0.959926 0.204235 -0.191913
vn 0.963299 0.009001 0.268279
vn 0.151471 0.816636 0.556922
vn 0.964155 0.000000 0.265338
vn 0.964155 0.000000 0.265338
vn 0.964156 0.000000 0.265337
vn 0.964156 0.000000 0.265337
vn 0.000000 -0.937522 0.347925
vn 0.000000 -0.937522 0.347925
vn -0.005909 -0.936000 0.351949
vn -0.281850 -0.807293 0.518497
vn -0.803992 0.000000 0.594640
vn -0.803993 0.000000 0.594639
vn -0.804397 0.073007 0.589590
vn -0.025802 0.993771 0.108414
vn -0.000022 0.995668 0.092977
vn -0.938822 0.021515 0.343730
vn -0.941731 0.000048 0.336368
vn -0.136618 0.812434 0.566822
vn -0.000021 0.953683 -0.300814
vn -0.027190 0.947541 -0.318475
vn -0.740371 0.057025 -0.669775
vn 1.000000 0.000000 0.000000
vn 1.000000 0.000000 0.000000
vn 1.000000 0.000000 -0.000000
vn -0.870826 -0.491539 0.007172
vn -0.692238 -0.667878 0.273398
vn -0.947932 -0.075235 0.309459
vn -0.998498 -0.051763 0.017972
vn 0.000000 0.999993 0.003838
vn 0.000000 0.996032 0.088997
vn 0.000000 0.996032 0.088997
vn 0.000000 0.999993 0.003838
vn 0.999526 -0.024980 0.018014
vn 0.950444 -0.043641 0.307819
vn 0.806369 -0.510955 0.297817
vn 0.967071 -0.254426 0.006386
vn 0.000000 -0.999993 0.003838
vn 0.000000 -0.996032 0.088997
vn 0.000000 -0.996032 0.088997
vn 0.000000 -0.999993 0.003838
vn 0.000000 -0.725802 0.687904
vn 0.000000 -0.725802 0.687904
vn 0.000000 -0.133316 0.991074
vn 0.000000 -0.116821 0.993153
vn -0.000000 -0.725802 -0.687903
vn -0.000000 -0.725802 -0.687903
vn -0.000000 -0.116821 -0.993153
vn -0.000000 -0.133316 -0.991074
vn -0.000000 0.134217 -0.990952
vn -0.000000 0.116716 -0.993165
vn -0.000000 0.757321 -0.653043
vn -0.000000 0.757321 -0.653043
vn 0.960718 0.277460 0.006034
vn 0.781922 0.549930 0.293557
vn 0.950522 0.042217 0.307776
vn 0.999543 0.024337 0.017929
vn 0.000000 0.116716 0.993165
vn 0.000000 0.134217 0.990952
vn 0.000000 0.757321 0.653043
vn 0.000000 0.757321 0.653043
vn -0.849811 0.527043 0.006841
vn -0.998555 0.050670 0.017888
vn -0.948017 0.074098 0.309473
vn -0.657928 0.704556 0.265956
vn -0.949918 -0.074602 -0.303465
vn -0.998493 -0.051851 -0.017965
vn -0.998551 0.050764 -0.017882
vn -0.950003 0.073451 -0.303478
vn -0.696452 -0.665387 -0.268728
vn -0.870836 -0.491522 -0.007150
vn -0.000000 -0.996198 -0.087122
vn -0.000000 -0.999993 -0.003852
vn -0.000000 -0.999993 -0.003852
vn -0.000000 -0.996198 -0.087122
vn 0.952379 -0.043123 -0.301854
vn 0.999525 -0.025021 -0.018005
vn 0.967075 -0.254413 -0.006374
vn 0.810940 -0.506712 -0.292608
vn 0.952455 0.041701 -0.301811
vn 0.999542 0.024381 -0.017922
vn 0.786831 0.545570 -0.288531
vn 0.960723 0.277443 -0.006020
vn -0.000000 0.996198 -0.087122
vn -0.000000 0.999993 -0.003852
vn -0.000000 0.999993 -0.003852
vn -0.000000 0.996198 -0.087122
vn -0.849823 0.527024 -0.006818
vn -0.662284 0.702141 -0.261492
s 1
g pasted__polySurface101 group
usemtl initialShadingGroup
f 104/78/1 105/83/2 42/84/3 17/79/4
f 103/77/5 104/78/1 17/79/4 18/80/6
f 102/87/7 103/77/5 18/80/6 47/88/8
f 112/109/9 100/110/10 20/111/11 21/112/12
s 3
f 44/1/13 45/2/14 6/3/15 4/4/16
s 1
f 48/22/17 41/23/18 3/24/19 5/25/20
f 7/31/21 1/32/22 10/27/23 9/26/24
s 6
f 109/199/25 110/200/26 22/201/27 23/202/28
s 3
f 2/10/29 8/11/30 12/6/31 11/5/32
s 7
f 100/215/33 101/216/34 19/217/35 20/218/36
s 1
f 110/125/37 111/117/38 57/118/39 22/126/40
s 3
f 59/14/41 60/13/42 15/15/43 14/17/44
s 6
f 53/45/45 107/49/46 108/50/47 36/46/48
s 1
f 55/33/49 56/35/50 13/38/51 16/36/52
f 17/79/4 25/85/53 26/86/54 18/80/6
f 46/94/55 47/88/8 18/80/6 26/86/54
s 7
f 20/218/36 19/217/35 27/223/56 28/224/57
s 1
f 21/112/12 20/111/11 28/115/58 29/116/59
f 22/126/40 57/118/39 58/124/60 30/132/61
s 6
f 23/202/28 22/201/27 30/205/62 31/206/63
s 10
f 51/139/64 52/140/65 23/141/66 31/142/67
s 1
f 17/79/4 42/84/3 43/91/68 25/85/53
f 87/93/69 88/92/70 86/100/71 74/101/72
f 74/101/72 75/104/73 99/102/74 87/93/69
s 7
f 97/230/75 98/229/76 76/233/77 77/234/78
s 1
f 96/123/79 97/122/80 77/129/81 78/130/82
f 94/136/83 95/131/84 79/135/85 80/138/86
s 6
f 93/210/87 94/209/88 80/211/89 81/212/90
f 82/153/91 83/145/92 91/148/93 92/154/94
s 1
f 88/92/70 89/99/95 85/103/96 86/100/71
f 54/34/97 55/33/49 16/36/52 35/37/98
s 6
f 108/50/47 109/51/25 23/43/28 36/46/48
s 12
f 23/43/99 52/44/100 53/45/101 36/46/102
s 13
f 50/52/103 51/53/104 31/54/105 39/55/106
s 6
f 92/213/94 93/210/87 81/212/90 82/214/91
s 3
f 15/15/43 60/13/42 49/12/107 40/16/108
s 1
f 105/239/2 106/240/109 34/241/110 42/242/3
f 43/245/68 42/242/3 34/241/110 24/246/111 32/247/112 37/248/113
f 84/253/114 85/254/96 89/252/95 90/251/115
s 3
f 11/5/32 12/6/31 45/2/14 44/1/13 38/7/116
s 7
f 98/229/76 99/232/117 75/235/118 76/233/77
f 19/217/35 47/222/119 46/228/120 27/223/56
f 101/216/34 102/221/121 47/222/119 19/217/35
s 1
f 9/26/24 10/27/23 33/28/122 41/23/18 48/22/17
s 6
f 83/145/92 84/146/123 90/147/124 91/148/93
s 13
f 32/56/125 51/53/104 50/52/103 37/57/126
s 10
f 32/143/127 24/144/128 52/140/65 51/139/64
s 12
f 53/45/101 52/44/100 24/47/129 34/48/130
s 6
f 34/156/131 106/157/132 107/158/46 53/159/45
s 1
f 10/27/23 55/33/49 54/34/97 33/28/122
f 10/27/23 1/32/22 56/35/50 55/33/49
f 111/117/38 112/109/9 21/112/12 57/118/39
f 58/124/60 57/118/39 21/112/12 29/116/59
f 78/130/82 79/135/85 95/131/84 96/123/79
s 3
f 2/10/29 11/5/32 60/13/42 59/14/41
f 49/12/107 60/13/42 11/5/32 38/7/116
s 1
f 3/24/19 62/29/133 61/30/134 5/25/20
f 41/95/18 63/89/135 62/82/133 3/96/19
f 33/249/122 64/244/136 63/243/135 41/250/18
s 6
f 65/161/137 64/160/138 33/162/139 54/163/140
f 66/165/141 65/161/137 54/163/140 35/166/142
f 16/36/143 67/39/144 66/40/141 35/37/142
f 13/38/145 68/42/146 67/39/144 16/36/143
s 1
f 56/35/50 69/41/147 68/42/148 13/38/51
f 1/120/22 70/113/149 69/121/147 56/127/50
f 7/119/21 71/114/150 70/113/149 1/120/22
f 9/225/24 72/220/151 71/219/150 7/226/21
f 48/231/17 73/227/152 72/220/151 9/225/24
f 5/97/20 61/81/134 73/90/152 48/98/17
f 45/107/153 75/104/73 74/101/72 6/108/154
f 76/233/155 75/235/73 45/238/153 12/236/156
f 77/234/157 76/233/155 12/236/156 8/237/158
f 78/130/82 77/129/81 8/133/159 2/134/160
f 59/137/161 79/135/85 78/130/82 2/134/160
f 80/20/86 79/21/85 59/14/161 14/17/162
s 6
f 81/19/90 80/20/89 14/17/163 15/15/164
f 82/18/91 81/19/90 15/15/164 40/16/165
f 49/150/166 83/145/92 82/153/91 40/155/165
f 38/149/167 84/146/123 83/145/92 49/150/166
s 1
f 44/255/168 85/254/96 84/253/114 38/256/169
f 86/100/71 85/103/96 44/105/168 4/106/170
f 74/8/72 86/9/71 4/4/170 6/3/154
f 25/85/53 88/92/70 87/93/69 26/86/54
f 25/85/53 43/91/68 89/99/95 88/92/70
f 90/251/115 89/252/95 43/245/68 37/248/113
s 6
f 91/148/93 90/147/124 37/151/171 50/152/172
f 92/59/94 91/60/93 50/52/172 39/55/173
f 31/54/63 93/58/87 92/59/94 39/55/173
f 31/206/63 30/205/62 94/209/88 93/210/87
s 1
f 30/132/61 58/124/60 95/131/84 94/136/83
f 96/123/79 95/131/84 58/124/60 29/116/59
f 29/116/59 28/115/58 97/122/80 96/123/79
s 7
f 28/224/57 27/223/56 98/229/76 97/230/75
f 27/223/56 46/228/120 99/232/117 98/229/76
s 1
f 87/93/69 99/102/74 46/94/55 26/86/54
s 7
f 71/219/174 72/220/175 101/216/34 100/215/33
f 72/220/175 73/227/176 102/221/121 101/216/34
s 1
f 73/90/152 61/81/134 103/77/5 102/87/7
f 61/81/134 62/82/133 104/78/1 103/77/5
f 62/82/133 63/89/135 105/83/2 104/78/1
f 63/243/135 64/244/136 106/240/109 105/239/2
s 6
f 107/158/46 106/157/132 64/160/138 65/161/137
f 108/164/47 107/158/46 65/161/137 66/165/141
f 66/207/141 67/203/144 109/199/25 108/208/47
f 67/203/144 68/204/146 110/200/26 109/199/25
s 1
f 68/128/148 69/121/147 111/117/38 110/125/37
f 69/121/147 70/113/149 112/109/9 111/117/38
f 70/113/149 71/114/150 100/110/10 112/109/9
s 14
f 139/186/177 114/185/178 128/189/179 138/190/180
s 15
f 144/167/181 116/168/182 118/169/183 143/170/184
s 16
f 141/187/185 127/188/186 120/184/187 140/183/188
s 17
f 140/183/189 120/184/190 114/185/191 139/186/192
s 18
f 114/73/193 120/74/194 127/70/195 128/69/196
s 19
f 119/65/197 113/66/198 125/62/199 126/61/200
f 122/64/201 121/63/202 115/67/203 117/68/204
s 16
f 143/170/205 118/169/206 123/173/207 142/174/208
s 18
f 124/72/209 123/71/210 118/75/211 116/76/212
s 14
f 144/167/213 137/171/214 124/172/215 116/168/216
s 19
f 126/61/200 125/62/199 121/63/202 122/64/201
s 16
f 142/257/208 123/258/207 127/259/186 141/260/185
s 18
f 128/69/196 127/70/195 123/71/210 124/72/209
s 14
f 138/269/180 128/270/179 124/271/215 137/272/214
f 125/277/217 130/273/218 129/274/219 121/278/220
f 113/194/221 131/192/222 130/197/218 125/198/217
s 17
f 119/193/223 132/191/224 131/192/225 113/194/226
s 16
f 126/195/227 133/196/228 132/191/229 119/193/230
f 122/267/231 134/261/232 133/262/228 126/268/227
f 117/179/233 135/176/234 134/181/232 122/182/231
s 15
f 115/178/235 136/175/236 135/176/237 117/179/238
s 14
f 121/180/220 129/177/219 136/175/239 115/178/240
f 130/273/218 138/269/180 137/272/214 129/274/219
f 131/275/222 139/276/177 138/269/180 130/273/218
s 17
f 132/191/224 140/183/189 139/186/192 131/192/225
s 16
f 133/262/228 141/260/185 140/265/188 132/266/229
f 134/261/232 142/257/208 141/260/185 133/262/228
f 135/263/234 143/264/205 142/257/208 134/261/232
s 15
f 136/175/236 144/167/181 143/170/184 135/176/237
s 14
f 136/175/239 129/177/219 137/171/214 144/167/213
