# This file uses centimeters as units for non-parametric coordinates.

mtllib sth_inside_fridge1.mtl
g default
v 2.428115 1.470344 7.841802
v 3.616293 1.470344 7.841802
v 2.271555 2.259935 7.946085
v 3.772853 2.259935 7.946085
v 2.271555 2.259935 6.946085
v 3.772853 2.259935 6.946085
v 2.428115 1.470344 7.050368
v 3.616293 1.470344 7.050368
v 2.318673 1.805549 6.977470
v 2.318673 1.805549 7.914699
v 3.725735 1.805549 7.914699
v 3.725735 1.805549 6.977470
v 2.279995 2.178538 6.951707
v 2.279995 2.178538 7.940463
v 3.764413 2.178538 7.940463
v 3.764413 2.178538 6.951707
v 2.259582 2.175007 7.960936
v 3.784826 2.175006 7.960936
v 3.793267 2.256404 7.966559
v 2.251141 2.256404 7.966559
v 2.251141 2.256404 6.925611
v 3.793267 2.256404 6.925611
v 3.784826 2.175006 6.931233
v 2.259582 2.175007 6.931233
vt 0.490059 0.808644
vt 0.490059 0.485814
vt 0.515578 0.484052
vt 0.515578 0.810407
vt 0.458404 0.808644
vt 0.458404 0.485814
vt 0.483923 0.484052
vt 0.483923 0.810407
vt 0.230237 0.768404
vt 0.230237 0.520276
vt 0.335330 0.497421
vt 0.335330 0.791259
vt 0.452268 0.489344
vt 0.452268 0.799336
vt 0.002071 0.768404
vt 0.002071 0.520276
vt 0.107164 0.497421
vt 0.107164 0.791259
vt 0.224102 0.489344
vt 0.224102 0.799336
vt 0.041738 0.478953
vt 0.041738 0.008269
vt 0.355256 0.008269
vt 0.355256 0.478953
vt 0.035319 0.485353
vt 0.035319 0.001870
vt 0.361675 0.001870
vt 0.361675 0.485353
vt 0.521713 0.856566
vt 0.521713 0.484052
vt 0.769842 0.484052
vt 0.769842 0.856566
vt 0.718133 0.473660
vt 0.718133 0.008269
vt 0.724552 0.001870
vt 0.724552 0.480060
vt 0.408141 0.008269
vt 0.401722 0.001870
vt 0.408141 0.473660
vt 0.401722 0.480060
vt 0.001992 0.482706
vt 0.001992 0.004516
vt 0.027512 0.001870
vt 0.027512 0.485353
vt 0.368590 0.485353
vt 0.368590 0.001870
vt 0.394110 0.004516
vt 0.394110 0.482707
vt 0.731095 0.420822
vt 0.731095 0.048308
vt 0.836188 0.013996
vt 0.836188 0.455134
vt 0.953126 0.001870
vt 0.953126 0.467260
vt 0.892915 0.924517
vt 0.892915 0.483378
vt 0.998008 0.517690
vt 0.998008 0.890205
vt 0.775977 0.936643
vt 0.775977 0.471252
vn 0.000000 -0.068909 0.997623
vn 0.000000 -0.068909 0.997623
vn 0.000000 -0.068909 0.997623
vn 0.000000 -0.068909 0.997623
vn -0.003414 0.999981 0.005085
vn 0.003415 0.999981 0.005085
vn 0.003415 0.999981 -0.005085
vn -0.003414 0.999981 -0.005085
vn 0.000000 -0.068909 -0.997623
vn 0.000000 -0.068909 -0.997623
vn 0.000000 -0.068909 -0.997623
vn 0.000000 -0.068909 -0.997623
vn 0.000000 -1.000000 0.000000
vn 0.000000 -1.000000 0.000000
vn 0.000000 -1.000000 0.000000
vn 0.000000 -1.000000 0.000000
vn 0.994666 -0.103144 0.000000
vn 0.994666 -0.103144 0.000000
vn 0.994666 -0.103144 0.000000
vn 0.994666 -0.103144 0.000000
vn -0.994666 -0.103144 0.000000
vn -0.994666 -0.103144 0.000000
vn -0.994666 -0.103144 0.000000
vn -0.994666 -0.103144 0.000000
vn -0.950616 -0.310369 0.000000
vn -0.950616 -0.310369 0.000000
vn -0.981828 -0.189774 0.000000
vn -0.981828 -0.189774 0.000000
vn 0.000000 -0.212506 0.977160
vn 0.000000 -0.212506 0.977160
vn 0.000000 -0.124221 0.992255
vn 0.000000 -0.124221 0.992255
vn 0.950616 -0.310369 0.000000
vn 0.950616 -0.310369 0.000000
vn 0.981828 -0.189774 0.000000
vn 0.981828 -0.189774 0.000000
vn 0.000000 -0.124221 -0.992255
vn 0.000000 -0.124221 -0.992255
vn 0.000000 -0.212507 -0.977160
vn 0.000000 -0.212507 -0.977160
vn -0.994666 -0.103144 0.000000
vn -0.994667 -0.103144 0.000000
vn 0.000000 -0.068908 0.997623
vn 0.000000 -0.068908 0.997623
vn 0.994667 -0.103144 0.000000
vn 0.994667 -0.103144 0.000000
vn 0.000000 -0.068906 -0.997623
vn 0.000000 -0.068906 -0.997623
vn 0.068836 -0.992347 -0.102515
vn -0.068840 -0.992347 -0.102515
vn -0.068636 -0.992340 -0.102717
vn 0.068631 -0.992340 -0.102717
vn -0.068628 0.992340 0.102720
vn 0.068633 0.992340 0.102720
vn 0.068633 0.992340 -0.102720
vn -0.068628 0.992340 -0.102720
vn -0.068840 -0.992347 0.102515
vn 0.068836 -0.992347 0.102515
vn 0.068631 -0.992340 0.102717
vn -0.068636 -0.992340 0.102717
s off
g pCube54
usemtl initialShadingGroup
f 17/41/1 18/42/2 19/43/3 20/44/4
s 1
f 3/21/5 4/22/6 6/23/7 5/24/8
s off
f 21/45/9 22/46/10 23/47/11 24/48/12
f 7/29/13 8/30/14 2/31/15 1/32/16
f 18/1/17 23/2/18 22/3/19 19/4/20
f 24/5/21 17/6/22 20/7/23 21/8/24
s 2
f 7/9/25 1/10/26 10/11/27 9/12/28
s 3
f 1/49/29 2/50/30 11/51/31 10/52/32
s 4
f 2/15/33 8/16/34 12/17/35 11/18/36
s 5
f 9/55/37 12/56/38 8/57/39 7/58/40
s 2
f 9/12/28 10/11/27 14/13/41 13/14/42
s 3
f 10/52/32 11/51/31 15/53/43 14/54/44
s 4
f 11/18/36 12/17/35 16/19/45 15/20/46
s 5
f 13/59/47 16/60/48 12/56/38 9/55/37
s 6
f 14/33/49 15/34/50 18/35/51 17/36/52
s 1
f 4/22/6 3/21/5 20/25/53 19/26/54
f 5/24/8 6/23/7 22/27/55 21/28/56
s 6
f 16/37/57 13/39/58 24/40/59 23/38/60
f 15/34/50 16/37/57 23/38/60 18/35/51
s 1
f 6/23/7 4/22/6 19/26/54 22/27/55
s 6
f 13/39/58 14/33/49 17/36/52 24/40/59
s 1
f 3/21/5 5/24/8 21/28/56 20/25/53
