# This file uses centimeters as units for non-parametric coordinates.

mtllib sth_inside_fridge2.mtl
g default
v -0.988370 0.739005 7.930213
v 0.988370 0.739005 7.930213
v -0.988370 2.936363 7.930213
v 0.988370 2.936363 7.930213
v -0.988370 2.936363 7.401063
v 0.988370 2.936363 7.401063
v -0.988370 0.739005 7.401063
v 0.988370 0.739005 7.401063
v -0.988370 2.505509 7.930213
v -0.988370 2.505509 7.401063
v 0.988370 2.505509 7.401063
v 0.988370 2.505509 7.930213
v -0.988370 1.400914 7.930213
v -0.988370 1.400914 7.401063
v 0.988370 1.400914 7.401063
v 0.988370 1.400914 7.930213
v -1.009022 1.400914 7.950864
v -1.009022 1.400914 7.380412
v -1.009022 2.505509 7.950864
v -1.009022 2.505509 7.380412
v 1.009022 2.505509 7.380412
v 1.009022 1.400914 7.380412
v 1.009022 1.400914 7.950864
v 1.009022 2.505509 7.950864
vt 0.310121 0.938999
vt 0.310121 0.637143
vt 0.401049 0.637143
vt 0.401049 0.938999
vt 0.407569 0.938999
vt 0.407569 0.637143
vt 0.498497 0.637143
vt 0.498497 0.938999
vt 0.505017 0.938999
vt 0.505017 0.637143
vt 0.564204 0.637143
vt 0.564204 0.938999
vt 0.637545 0.945305
vt 0.637545 0.643450
vt 0.696733 0.643450
vt 0.696733 0.945305
vt 0.001992 0.327304
vt 0.001992 0.001887
vt 0.153732 0.001887
vt 0.153732 0.327304
vt 0.160052 0.327304
vt 0.160052 0.001887
vt 0.311792 0.001887
vt 0.311792 0.327304
vt 0.283338 0.331296
vt 0.585194 0.331296
vt 0.585194 0.633151
vt 0.283338 0.633151
vt 0.001992 0.637143
vt 0.303847 0.637143
vt 0.303847 0.938999
vt 0.001992 0.938999
vt 0.323020 0.013668
vt 0.323020 0.315523
vt 0.319866 0.327304
vt 0.319866 0.001887
vt 0.624875 0.315523
vt 0.628029 0.327304
vt 0.624875 0.013668
vt 0.628029 0.001887
vt 0.638750 0.013668
vt 0.638750 0.315523
vt 0.635596 0.327304
vt 0.635596 0.001887
vt 0.940605 0.315523
vt 0.943759 0.327304
vt 0.940605 0.013668
vt 0.943759 0.001887
vt 0.591329 0.633151
vt 0.591329 0.331296
vt 0.682257 0.331296
vt 0.682257 0.633151
vt 0.186275 0.633151
vt 0.186275 0.331296
vt 0.277203 0.331296
vt 0.277203 0.633151
vt 0.571281 0.938998
vt 0.571281 0.637143
vt 0.630468 0.637143
vt 0.630468 0.938998
vt 0.703810 0.945305
vt 0.703810 0.643450
vt 0.762997 0.643450
vt 0.762997 0.945305
vt 0.846268 0.639458
vt 0.846268 0.331296
vt 0.998008 0.331296
vt 0.998008 0.639458
vt 0.688392 0.639458
vt 0.688392 0.331296
vt 0.840132 0.331296
vt 0.840132 0.639458
vn 0.000000 0.000000 1.000000
vn 0.000000 0.000000 1.000000
vn 0.000000 0.000000 1.000000
vn 0.000000 0.000000 1.000000
vn 0.000000 1.000000 0.000000
vn 0.000000 1.000000 0.000000
vn 0.000000 1.000000 0.000000
vn 0.000000 1.000000 0.000000
vn 0.000000 0.000000 -1.000000
vn 0.000000 0.000000 -1.000000
vn 0.000000 0.000000 -1.000000
vn 0.000000 0.000000 -1.000000
vn 0.000000 -1.000000 0.000000
vn 0.000000 -1.000000 0.000000
vn 0.000000 -1.000000 0.000000
vn 0.000000 -1.000000 0.000000
vn 1.000000 0.000000 0.000000
vn 1.000000 0.000000 0.000000
vn 1.000000 0.000000 0.000000
vn 1.000000 0.000000 0.000000
vn -1.000000 0.000000 0.000000
vn -1.000000 0.000000 0.000000
vn -1.000000 0.000000 0.000000
vn -1.000000 0.000000 0.000000
vn -1.000000 0.000000 0.000000
vn -1.000000 0.000000 0.000000
vn -1.000000 0.000000 0.000000
vn -1.000000 0.000000 0.000000
vn 0.000000 0.000000 -1.000000
vn 0.000000 0.000000 -1.000000
vn 0.000000 0.000000 -1.000000
vn 0.000000 0.000000 -1.000000
vn 1.000000 0.000000 0.000000
vn 1.000000 0.000000 0.000000
vn 1.000000 0.000000 0.000000
vn 1.000000 0.000000 0.000000
vn 0.000000 0.000000 1.000000
vn 0.000000 0.000000 1.000000
vn 0.000000 0.000000 1.000000
vn 0.000000 0.000000 1.000000
vn -1.000000 0.000000 0.000000
vn -1.000000 0.000000 0.000000
vn -1.000000 0.000000 0.000000
vn -1.000000 0.000000 0.000000
vn 0.000000 0.000000 -1.000000
vn 0.000000 0.000000 -1.000000
vn 0.000000 0.000000 -1.000000
vn 0.000000 0.000000 -1.000000
vn 1.000000 0.000000 0.000000
vn 1.000000 0.000000 0.000000
vn 1.000000 0.000000 0.000000
vn 1.000000 0.000000 0.000000
vn 0.000000 0.000000 1.000000
vn 0.000000 0.000000 1.000000
vn 0.000000 0.000000 1.000000
vn 0.000000 0.000000 1.000000
vn 0.000000 -1.000000 -0.000000
vn 0.000000 -1.000000 0.000000
vn 0.000000 -1.000000 0.000000
vn 0.000000 -1.000000 -0.000000
vn 0.000000 1.000000 0.000001
vn 0.000000 1.000000 -0.000001
vn 0.000000 1.000000 -0.000002
vn 0.000000 1.000000 0.000002
vn 0.000000 1.000000 -0.000001
vn 0.000000 1.000000 -0.000002
vn 0.000000 -1.000000 -0.000000
vn 0.000000 -1.000000 -0.000000
vn 0.000000 -1.000000 0.000000
vn 0.000000 -1.000000 0.000000
vn 0.000000 1.000000 0.000001
vn 0.000000 1.000000 0.000002
s off
g pCube55
usemtl initialShadingGroup
f 1/49/1 2/50/2 16/51/3 13/52/4
f 3/25/5 4/26/6 6/27/7 5/28/8
f 14/53/9 15/54/10 8/55/11 7/56/12
f 7/29/13 8/30/14 2/31/15 1/32/16
f 2/1/17 8/2/18 15/3/19 16/4/20
f 7/5/21 1/6/22 13/7/23 14/8/24
f 10/9/25 9/10/26 3/11/27 5/12/28
f 5/57/29 6/58/30 11/59/31 10/60/32
f 12/13/33 11/14/34 6/15/35 4/16/36
f 9/61/37 12/62/38 4/63/39 3/64/40
f 18/17/41 17/18/42 19/19/43 20/20/44
f 20/65/45 21/66/46 22/67/47 18/68/48
f 23/21/49 22/22/50 21/23/51 24/24/52
f 17/69/53 23/70/54 24/71/55 19/72/56
s 1
f 14/33/57 13/34/58 17/35/59 18/36/60
s 2
f 9/41/61 10/42/62 20/43/63 19/44/64
f 10/42/62 11/45/65 21/46/66 20/43/63
s 1
f 15/39/67 14/33/57 18/36/60 22/40/68
f 16/37/69 15/39/67 22/40/68 23/38/70
s 2
f 11/45/65 12/47/71 24/48/72 21/46/66
s 1
f 13/34/58 16/37/69 23/38/70 17/35/59
s 2
f 12/47/71 9/41/61 19/44/64 24/48/72
