# This file uses centimeters as units for non-parametric coordinates.

mtllib switch.mtl
g default
v -0.029334 10.667547 5.995976
v 0.029334 10.667547 5.995976
v -0.029334 11.190026 5.995976
v 0.029334 11.190026 5.995976
v -0.029334 11.190026 5.738080
v 0.029334 11.190026 5.738080
v -0.029334 10.667547 5.738080
v 0.029334 10.667547 5.738080
v -0.029334 11.117253 5.738080
v -0.029334 11.117253 5.995976
v 0.029334 11.117253 5.995976
v 0.029334 11.117253 5.738080
v -0.029334 10.744366 5.738080
v -0.029334 10.744366 5.995976
v 0.029334 10.744366 5.995976
v 0.029334 10.744366 5.738080
v -0.029334 11.190026 5.785958
v -0.029334 11.117253 5.785958
v -0.029334 10.744366 5.785958
v -0.029334 10.667547 5.785958
v 0.029334 10.667547 5.785958
v 0.029334 10.744366 5.785958
v 0.029334 11.117253 5.785958
v 0.029334 11.190026 5.785958
v -0.029334 11.190026 5.957321
v -0.029334 11.117253 5.957321
v -0.029334 10.744366 5.957321
v -0.029334 10.667547 5.957321
v 0.029334 10.667547 5.957321
v 0.029334 10.744366 5.957321
v 0.029334 11.117253 5.957321
v 0.029334 11.190026 5.957321
v -0.012752 10.744366 5.785958
v -0.012752 10.744366 5.957321
v -0.012752 11.117253 5.957321
v -0.012752 11.117253 5.785958
v 0.012752 10.744366 5.957321
v 0.012752 11.117253 5.957321
v 0.012752 10.744366 5.785958
v 0.012752 11.117253 5.785958
v -0.029334 11.021795 5.738080
v -0.029334 11.021795 5.785958
v -0.012752 11.021795 5.785958
v -0.012752 11.021795 5.957321
v -0.029334 11.021795 5.957321
v -0.029334 11.021795 5.995976
v 0.029334 11.021795 5.995976
v 0.029334 11.021795 5.957321
v 0.012752 11.021795 5.957321
v 0.012752 11.021795 5.785958
v 0.029334 11.021795 5.785958
v 0.029334 11.021795 5.738080
v 0.029334 11.090754 5.957321
v 0.029334 11.090754 5.995976
v -0.029334 11.090754 5.995976
v -0.029334 11.090754 5.957321
v -0.012752 11.090754 5.957321
v -0.012752 11.090754 5.785958
v -0.029334 11.090754 5.785958
v -0.029334 11.090754 5.738080
v 0.029334 11.090754 5.738080
v 0.029334 11.090754 5.785958
v 0.012752 11.090754 5.785958
v 0.012752 11.090754 5.957321
v 0.029334 11.190026 5.949290
v -0.029334 11.190026 5.949290
v -0.029334 11.117253 5.949290
v -0.012752 11.117253 5.949290
v -0.012752 11.090754 5.949290
v -0.012752 11.021795 5.949290
v -0.012752 10.744366 5.949290
v -0.029334 10.744366 5.949290
v -0.029334 10.667547 5.949290
v 0.029334 10.667547 5.949290
v 0.029334 10.744366 5.949290
v 0.012752 10.744366 5.949290
v 0.012752 11.021795 5.949290
v 0.012752 11.090754 5.949290
v 0.012752 11.117253 5.949290
v 0.029334 11.117253 5.949290
v 0.029334 11.190026 5.792868
v -0.029334 11.190026 5.792868
v -0.029334 11.117253 5.792868
v -0.012752 11.117253 5.792868
v -0.012752 11.090754 5.792868
v -0.012752 11.021795 5.792868
v -0.012752 10.744366 5.792868
v -0.029334 10.744366 5.792868
v -0.029334 10.667547 5.792868
v 0.029334 10.667547 5.792868
v 0.029334 10.744366 5.792868
v 0.012752 10.744366 5.792868
v 0.012752 11.021795 5.792868
v 0.012752 11.090754 5.792868
v 0.012752 11.117253 5.792868
v 0.029334 11.117253 5.792868
v 0.167055 11.034300 5.949290
v 0.167055 11.078249 5.949290
v 0.167055 11.034300 5.792868
v 0.167055 11.078249 5.792868
vt 0.293841 0.800024
vt 0.327936 0.800024
vt 0.327936 0.831708
vt 0.293841 0.831708
vt 0.293841 0.788487
vt 0.327936 0.788487
vt 0.335020 0.800024
vt 0.335020 0.831708
vt 0.293841 0.758464
vt 0.327936 0.758464
vt 0.472992 0.800024
vt 0.472992 0.831708
vt 0.293841 0.637677
vt 0.327936 0.637677
vt 0.479086 0.800024
vt 0.479086 0.831708
vt 0.293841 0.604232
vt 0.327936 0.604232
vt 0.521317 0.800024
vt 0.521317 0.831708
vt 0.335020 0.604232
vt 0.335020 0.637677
vt 0.479086 0.788487
vt 0.521317 0.788487
vt 0.472992 0.604232
vt 0.472992 0.637677
vt 0.479086 0.758464
vt 0.521317 0.758464
vt 0.479086 0.604232
vt 0.479086 0.637677
vt 0.521317 0.637677
vt 0.521317 0.604232
vt 0.253669 0.800024
vt 0.287765 0.800024
vt 0.287765 0.831708
vt 0.253669 0.831708
vt 0.253669 0.788487
vt 0.287765 0.788487
vt 0.246585 0.800024
vt 0.246585 0.831708
vt 0.253669 0.758464
vt 0.287765 0.758464
vt 0.108614 0.800024
vt 0.108614 0.831708
vt 0.253669 0.637677
vt 0.287765 0.637677
vt 0.102519 0.800024
vt 0.102519 0.831708
vt 0.253669 0.604232
vt 0.287765 0.604232
vt 0.060289 0.800024
vt 0.060289 0.831708
vt 0.246585 0.604232
vt 0.246585 0.637677
vt 0.060289 0.788487
vt 0.102519 0.788487
vt 0.108614 0.604232
vt 0.108614 0.637677
vt 0.060289 0.758464
vt 0.102519 0.758464
vt 0.102519 0.604232
vt 0.102519 0.637677
vt 0.060289 0.637677
vt 0.060289 0.604232
vt 0.146039 0.956448
vt 0.153123 0.956448
vt 0.153123 0.986471
vt 0.146039 0.986471
vt 0.146039 0.835661
vt 0.153123 0.835661
vt 0.153123 0.998008
vt 0.146039 0.998008
vt 0.008068 0.956448
vt 0.008068 0.986471
vt 0.008068 0.835661
vt 0.008068 0.998008
vt 0.001973 0.956448
vt 0.001973 0.986471
vt 0.001973 0.835661
vt 0.001973 0.998008
vt 0.160445 0.986471
vt 0.160445 0.956448
vt 0.167529 0.956448
vt 0.167529 0.986471
vt 0.160445 0.835661
vt 0.167529 0.835661
vt 0.160445 0.998008
vt 0.167529 0.998008
vt 0.305501 0.956448
vt 0.305501 0.835661
vt 0.305501 0.986471
vt 0.305501 0.998008
vt 0.311595 0.956448
vt 0.311595 0.835661
vt 0.311595 0.986471
vt 0.311595 0.998008
vt 0.909207 0.602822
vt 0.890073 0.602822
vt 0.890073 0.464850
vt 0.909207 0.464850
vt 0.598608 0.001992
vt 0.826084 0.001992
vt 0.826084 0.036087
vt 0.598608 0.036087
vt 0.826084 0.043171
vt 0.598608 0.043171
vt 0.826084 0.181143
vt 0.598608 0.181143
vt 0.826084 0.187238
vt 0.598608 0.187238
vt 0.826084 0.229468
vt 0.598608 0.229468
vt 0.527393 0.426802
vt 0.754869 0.426802
vt 0.754869 0.460897
vt 0.527393 0.460897
vt 0.527393 0.419718
vt 0.754869 0.419718
vt 0.527393 0.281746
vt 0.754869 0.281746
vt 0.527393 0.275652
vt 0.754869 0.275652
vt 0.527393 0.233421
vt 0.754869 0.233421
vt 0.604398 0.471934
vt 0.604398 0.464850
vt 0.668694 0.464850
vt 0.668694 0.471934
vt 0.604398 0.609906
vt 0.668694 0.609906
vt 0.604398 0.616001
vt 0.668694 0.616001
vt 0.675817 0.616001
vt 0.675817 0.608917
vt 0.740113 0.608917
vt 0.740113 0.616001
vt 0.675817 0.470945
vt 0.740113 0.470945
vt 0.675817 0.464850
vt 0.740113 0.464850
vt 0.811531 0.464850
vt 0.811531 0.471934
vt 0.747235 0.471934
vt 0.747235 0.464850
vt 0.811531 0.609906
vt 0.747235 0.609906
vt 0.811531 0.616001
vt 0.747235 0.616001
vt 0.882950 0.608917
vt 0.882950 0.616001
vt 0.818654 0.616001
vt 0.818654 0.608917
vt 0.882950 0.470945
vt 0.818654 0.470945
vt 0.882950 0.464850
vt 0.818654 0.464850
vt 0.176812 0.600278
vt 0.038840 0.600278
vt 0.038840 0.001992
vt 0.176812 0.001992
vt 0.358254 0.600278
vt 0.220282 0.600278
vt 0.220282 0.001992
vt 0.358254 0.001992
vt 0.365050 0.197784
vt 0.592525 0.197784
vt 0.592525 0.229468
vt 0.365050 0.229468
vt 0.365050 0.186247
vt 0.592525 0.186247
vt 0.365050 0.156224
vt 0.592525 0.156224
vt 0.365050 0.035437
vt 0.592525 0.035437
vt 0.365050 0.001992
vt 0.592525 0.001992
vt 0.760946 0.233421
vt 0.988422 0.233421
vt 0.988422 0.265105
vt 0.760946 0.265105
vt 0.988422 0.276642
vt 0.760946 0.276642
vt 0.988422 0.306665
vt 0.760946 0.306665
vt 0.988422 0.427452
vt 0.760946 0.427452
vt 0.988422 0.460897
vt 0.760946 0.460897
vt 0.318724 0.877221
vt 0.318724 0.847198
vt 0.383020 0.847198
vt 0.383020 0.877221
vt 0.318724 0.835661
vt 0.383020 0.835661
vt 0.318724 0.998008
vt 0.383020 0.998008
vt 0.390143 0.986471
vt 0.390143 0.956448
vt 0.454439 0.956448
vt 0.454439 0.986471
vt 0.390143 0.835661
vt 0.454439 0.835661
vt 0.390143 0.998008
vt 0.454439 0.998008
vt 0.461561 0.847198
vt 0.525857 0.847198
vt 0.525857 0.877221
vt 0.461561 0.877221
vt 0.525857 0.835661
vt 0.461561 0.835661
vt 0.525857 0.998008
vt 0.461561 0.998008
vt 0.597276 0.585637
vt 0.597276 0.615660
vt 0.532980 0.615660
vt 0.532980 0.585637
vt 0.597276 0.627198
vt 0.532980 0.627198
vt 0.597276 0.464850
vt 0.532980 0.464850
vt 0.031996 0.600278
vt 0.001973 0.600278
vt 0.007417 0.001992
vt 0.026552 0.001992
vt 0.213631 0.600278
vt 0.183608 0.600278
vt 0.189052 0.001992
vt 0.208186 0.001992
vn 0.000000 0.000000 1.000000
vn 0.000000 0.000000 1.000000
vn 0.000000 0.000000 1.000000
vn 0.000000 0.000000 1.000000
vn 0.000000 1.000000 0.000000
vn 0.000000 1.000000 0.000000
vn 0.000000 1.000000 0.000000
vn 0.000000 1.000000 0.000000
vn 0.000000 0.000000 -1.000000
vn 0.000000 0.000000 -1.000000
vn 0.000000 0.000000 -1.000000
vn 0.000000 0.000000 -1.000000
vn 0.000000 -1.000000 0.000000
vn 0.000000 -1.000000 0.000000
vn 0.000000 -1.000000 0.000000
vn 0.000000 -1.000000 0.000000
vn 1.000000 0.000000 0.000000
vn 1.000000 0.000000 0.000000
vn 1.000000 0.000000 0.000000
vn 1.000000 0.000000 0.000000
vn -1.000000 0.000000 0.000000
vn -1.000000 0.000000 0.000000
vn -1.000000 0.000000 0.000000
vn -1.000000 0.000000 0.000000
vn -1.000000 0.000000 0.000000
vn -1.000000 0.000000 0.000000
vn -1.000000 0.000000 0.000000
vn -1.000000 0.000000 0.000000
vn 0.000000 0.000000 1.000000
vn 0.000000 0.000000 1.000000
vn 0.000000 0.000000 1.000000
vn 0.000000 0.000000 1.000000
vn 1.000000 0.000000 0.000000
vn 1.000000 0.000000 0.000000
vn 1.000000 0.000000 0.000000
vn 1.000000 0.000000 0.000000
vn 0.000000 0.000000 -1.000000
vn 0.000000 0.000000 -1.000000
vn 0.000000 0.000000 -1.000000
vn 0.000000 0.000000 -1.000000
vn -1.000000 0.000000 0.000000
vn -1.000000 0.000000 0.000000
vn -1.000000 0.000000 0.000000
vn -1.000000 0.000000 0.000000
vn 0.000000 0.000000 1.000000
vn 0.000000 0.000000 1.000000
vn 0.000000 0.000000 1.000000
vn 0.000000 0.000000 1.000000
vn 1.000000 0.000000 0.000000
vn 1.000000 0.000000 0.000000
vn 1.000000 0.000000 0.000000
vn 1.000000 0.000000 0.000000
vn 0.000000 0.000000 -1.000000
vn 0.000000 0.000000 -1.000000
vn 0.000000 0.000000 -1.000000
vn 0.000000 0.000000 -1.000000
vn -1.000000 0.000000 0.000000
vn -1.000000 0.000000 0.000000
vn -1.000000 0.000000 0.000000
vn -1.000000 0.000000 0.000000
vn -1.000000 0.000000 0.000000
vn -1.000000 0.000000 0.000000
vn -1.000000 0.000000 0.000000
vn -1.000000 0.000000 0.000000
vn -1.000000 0.000000 0.000000
vn -1.000000 0.000000 0.000000
vn -1.000000 0.000000 0.000000
vn -1.000000 0.000000 0.000000
vn 0.000000 -1.000000 0.000000
vn 0.000000 -1.000000 0.000000
vn 0.000000 -1.000000 0.000000
vn 0.000000 -1.000000 0.000000
vn 1.000000 0.000000 0.000000
vn 1.000000 0.000000 0.000000
vn 1.000000 0.000000 0.000000
vn 1.000000 0.000000 0.000000
vn 1.000000 0.000000 0.000000
vn 1.000000 0.000000 0.000000
vn 1.000000 0.000000 0.000000
vn 1.000000 0.000000 0.000000
vn 1.000000 0.000000 0.000000
vn 1.000000 0.000000 0.000000
vn 1.000000 0.000000 0.000000
vn 1.000000 0.000000 0.000000
vn 0.000000 1.000000 0.000000
vn 0.000000 1.000000 0.000000
vn 0.000000 1.000000 0.000000
vn 0.000000 1.000000 0.000000
vn -1.000000 0.000000 0.000000
vn -1.000000 0.000000 0.000000
vn -1.000000 0.000000 -0.000000
vn -1.000000 0.000000 0.000000
vn -1.000000 0.000000 0.000000
vn -1.000000 0.000000 -0.000000
vn -1.000000 0.000000 0.000000
vn -1.000000 0.000000 0.000000
vn 0.000000 -1.000000 0.000000
vn 0.000000 -1.000000 0.000000
vn 1.000000 0.000000 0.000000
vn 1.000000 0.000000 0.000000
vn 1.000000 0.000000 0.000000
vn 1.000000 0.000000 0.000000
vn 1.000000 0.000000 -0.000000
vn 1.000000 0.000000 -0.000000
vn 1.000000 0.000000 0.000000
vn 1.000000 0.000000 0.000000
vn 0.000000 1.000000 0.000000
vn 0.000000 1.000000 0.000000
vn 0.000000 1.000000 0.000000
vn 0.000000 1.000000 0.000000
vn 0.000000 1.000000 0.000000
vn 0.000000 1.000000 0.000000
vn 0.000000 0.000000 -1.000000
vn 0.000000 0.000000 -1.000000
vn 0.000000 0.000000 -1.000000
vn 0.000000 0.000000 -1.000000
vn 0.000000 -1.000000 0.000000
vn 0.000000 -1.000000 -0.000000
vn 0.000000 -1.000000 -0.000000
vn 0.000000 -1.000000 0.000000
vn 0.000000 0.000000 1.000000
vn 0.000000 0.000000 1.000000
vn 0.000000 0.000000 1.000000
vn 0.000000 0.000000 1.000000
vn 0.000000 0.000000 -1.000000
vn 0.000000 0.000000 -1.000000
vn 0.000000 0.000000 -1.000000
vn 0.000000 0.000000 -1.000000
vn 0.000000 1.000000 0.000000
vn 0.000000 1.000000 -0.000000
vn 0.000000 1.000000 -0.000000
vn 0.000000 1.000000 0.000000
vn 0.000000 0.000000 1.000000
vn 0.000000 0.000000 1.000000
vn 0.000000 0.000000 1.000000
vn 0.000000 0.000000 1.000000
vn 0.000000 -1.000000 0.000000
vn 0.000000 -1.000000 0.000000
vn 0.000000 -1.000000 0.000000
vn 0.000000 -1.000000 0.000000
vn 0.000000 0.000000 1.000000
vn 0.000000 0.000000 1.000000
vn -1.000000 0.000000 -0.000000
vn -1.000000 0.000000 0.000000
vn 0.000000 0.000000 -1.000000
vn 0.000000 0.000000 -1.000000
vn 0.000000 0.000000 -1.000000
vn 0.000000 0.000000 -1.000000
vn 1.000000 0.000000 0.000000
vn 1.000000 0.000000 -0.000000
vn 0.000000 0.000000 1.000000
vn 0.000000 0.000000 1.000000
vn 0.000000 0.000000 -1.000000
vn 0.000000 0.000000 -1.000000
vn -1.000000 0.000000 0.000000
vn -1.000000 0.000000 -0.000000
vn 0.000000 0.000000 1.000000
vn 0.000000 0.000000 1.000000
vn 0.000000 0.000000 1.000000
vn 0.000000 0.000000 1.000000
vn 1.000000 0.000000 0.000000
vn 1.000000 0.000000 -0.000000
vn 0.000000 0.000000 -1.000000
vn 0.000000 0.000000 -1.000000
vn 0.000000 1.000000 0.000000
vn 0.000000 1.000000 0.000000
vn -1.000000 0.000000 0.000000
vn -1.000000 0.000000 0.000000
vn 0.000000 -1.000000 0.000000
vn 0.000000 -1.000000 -0.000000
vn -1.000000 0.000000 0.000000
vn -1.000000 0.000000 0.000000
vn -1.000000 0.000000 0.000000
vn -1.000000 0.000000 -0.000000
vn 0.000000 1.000000 0.000000
vn 0.000000 1.000000 0.000000
vn -1.000000 0.000000 0.000000
vn -1.000000 0.000000 0.000000
vn 0.000000 -1.000000 0.000000
vn 0.000000 -1.000000 0.000000
vn 1.000000 0.000000 0.000000
vn 1.000000 0.000000 0.000000
vn 0.000000 1.000000 -0.000000
vn 0.000000 1.000000 -0.000000
vn 1.000000 0.000000 0.000000
vn 1.000000 0.000000 -0.000000
vn 1.000000 0.000000 0.000000
vn 1.000000 0.000000 0.000000
vn 1.000000 0.000000 0.000000
vn 1.000000 0.000000 0.000000
vn 1.000000 0.000000 0.000000
vn 1.000000 0.000000 0.000000
vn 0.000000 -1.000000 0.000000
vn 0.000000 -1.000000 0.000000
vn 1.000000 0.000000 0.000000
vn 1.000000 0.000000 0.000000
vn 0.000000 -1.000000 0.000001
vn 0.000000 -1.000000 0.000001
vn -1.000000 0.000000 0.000000
vn -1.000000 0.000000 0.000000
vn -1.000000 0.000000 0.000000
vn -1.000000 0.000000 0.000000
vn 0.000000 1.000000 0.000000
vn 0.000000 1.000000 0.000000
vn 0.000000 1.000000 0.000001
vn 0.000000 1.000000 0.000001
vn 1.000000 0.000000 0.000000
vn 1.000000 0.000000 0.000000
vn 1.000000 0.000000 0.000000
vn 1.000000 0.000000 0.000000
vn 0.000000 -1.000000 0.000000
vn 0.000000 -1.000000 0.000000
vn -0.000000 0.000000 1.000000
vn -0.000000 0.000000 1.000000
vn -0.000000 0.000000 1.000000
vn -0.000000 0.000000 1.000000
vn 0.080775 -0.996732 0.000000
vn 0.080775 -0.996732 0.000000
vn 0.080775 -0.996732 0.000000
vn 0.080775 -0.996732 0.000000
vn 0.000000 0.000000 -1.000000
vn 0.000000 0.000000 -1.000000
vn 0.000000 0.000000 -1.000000
vn 0.000000 0.000000 -1.000000
vn 0.080775 0.996732 0.000000
vn 0.080775 0.996732 0.000000
vn 0.080775 0.996732 0.000000
vn 0.080775 0.996732 0.000000
s 1
g pCube46
usemtl initialShadingGroup
f 10/165/1 11/166/2 4/167/3 3/168/4
s 2
f 3/101/5 4/102/6 32/103/7 25/104/8
s 3
f 5/177/9 6/178/10 12/179/11 9/180/12
s 4
f 28/113/13 29/114/14 2/115/15 1/116/16
s 5
f 11/1/17 31/2/18 32/3/19 4/4/20
s 6
f 26/33/21 10/34/22 3/35/23 25/36/24
f 45/41/25 46/42/26 55/38/27 56/37/28
s 1
f 46/171/29 47/172/30 54/170/31 55/169/32
s 5
f 47/9/33 48/10/34 53/6/35 54/5/36
s 3
f 60/182/37 61/181/38 52/183/39 41/184/40
s 6
f 28/49/41 1/50/42 14/46/43 27/45/44
s 1
f 1/175/45 2/176/46 15/174/47 14/173/48
s 5
f 2/17/49 29/18/50 30/14/51 15/13/52
s 3
f 13/186/53 16/185/54 8/187/55 7/188/56
s 6
f 9/51/57 18/47/58 17/48/59 5/52/60
f 41/59/61 42/60/62 59/56/63 60/55/64
f 7/64/65 20/61/66 19/62/67 13/63/68
s 4
f 7/123/69 8/124/70 21/122/71 20/121/72
s 5
f 22/30/73 21/29/74 8/32/75 16/31/76
f 62/23/77 51/27/78 52/28/79 61/24/80
f 24/16/81 23/15/82 12/19/83 6/20/84
s 2
f 17/110/85 24/109/86 6/111/87 5/112/88
s 6
f 67/39/89 26/33/21 25/36/24 66/40/90
s 18
f 70/65/91 44/66/92 57/67/93 69/68/94
s 6
f 73/53/95 28/49/41 27/45/44 72/54/96
s 4
f 73/117/97 74/118/98 29/114/14 28/113/13
s 5
f 30/14/51 29/18/50 74/21/99 75/22/100
s 19
f 64/81/101 49/82/102 77/83/103 78/84/104
s 5
f 32/3/19 31/2/18 80/7/105 65/8/106
s 2
f 25/104/8 32/103/7 65/105/107 66/106/108
s 20
f 72/125/109 27/126/110 34/127/111 71/128/112
s 21
f 45/189/113 56/190/114 57/191/115 44/192/116
s 22
f 26/133/117 67/134/118 68/135/119 35/136/120
s 23
f 59/197/121 42/198/122 43/199/123 58/200/124
s 24
f 64/205/125 53/206/126 48/207/127 49/208/128
s 25
f 30/141/129 75/142/130 76/143/131 37/144/132
s 26
f 51/213/133 62/214/134 63/215/135 50/216/136
s 27
f 80/149/137 31/150/138 38/151/139 79/152/140
s 6
f 13/63/68 19/62/67 42/60/62 41/59/61
s 23
f 43/199/123 42/198/122 19/201/141 33/202/142
s 18
f 71/69/143 34/70/144 44/66/92 70/65/91
s 21
f 27/195/145 45/189/113 44/192/116 34/196/146
s 6
f 27/45/44 14/46/43 46/42/26 45/41/25
s 1
f 14/173/48 15/174/47 47/172/30 46/171/29
s 5
f 15/13/52 30/14/51 48/10/34 47/9/33
s 24
f 49/208/128 48/207/127 30/211/147 37/212/148
s 19
f 77/83/103 49/82/102 37/85/149 76/86/150
s 26
f 22/219/151 51/213/133 50/216/136 39/220/152
s 5
f 52/28/79 51/27/78 22/30/73 16/31/76
s 3
f 41/184/40 52/183/39 16/185/54 13/186/53
s 5
f 54/5/36 53/6/35 31/2/18 11/1/17
s 1
f 55/169/32 54/170/31 11/166/2 10/165/1
s 6
f 56/37/28 55/38/27 10/34/22 26/33/21
s 21
f 57/191/115 56/190/114 26/193/153 35/194/154
s 18
f 69/68/94 57/67/93 35/71/155 68/72/156
s 23
f 18/203/157 59/197/121 58/200/124 36/204/158
s 6
f 60/55/64 59/56/63 18/47/58 9/51/57
s 3
f 9/180/12 12/179/11 61/181/38 60/182/37
s 5
f 23/15/82 62/23/77 61/24/80 12/19/83
s 26
f 63/215/135 62/214/134 23/217/159 40/218/160
s 19
f 38/87/161 64/81/101 78/84/104 79/88/162
s 24
f 31/209/163 53/206/126 64/205/125 38/210/164
s 2
f 66/106/108 65/105/107 81/107/165 82/108/166
s 6
f 83/43/167 67/39/89 66/40/90 82/44/168
s 22
f 68/135/119 67/134/118 83/137/169 84/138/170
s 18
f 85/74/171 69/68/94 68/72/156 84/76/172
f 86/73/173 70/65/91 69/68/94 85/74/171
f 87/75/174 71/69/143 70/65/91 86/73/173
s 20
f 88/129/175 72/125/109 71/128/112 87/130/176
s 6
f 89/57/177 73/53/95 72/54/96 88/58/178
s 4
f 89/119/179 90/120/180 74/118/98 73/117/97
s 5
f 75/22/100 74/21/99 90/25/181 91/26/182
s 25
f 76/143/131 75/142/130 91/145/183 92/146/184
s 19
f 93/89/185 77/83/103 76/86/150 92/90/186
s off
f 98/97/187 97/98/188 99/99/189 100/100/190
s 19
f 79/88/162 78/84/104 94/91/191 95/92/192
s 27
f 96/153/193 80/149/137 79/152/140 95/154/194
s 5
f 65/8/106 80/7/105 96/11/195 81/12/196
s 2
f 82/108/166 81/107/165 24/109/86 17/110/85
s 6
f 18/47/58 83/43/167 82/44/168 17/48/59
s 22
f 84/138/170 83/137/169 18/139/197 36/140/198
s 18
f 58/78/199 85/74/171 84/76/172 36/80/200
f 43/77/201 86/73/173 85/74/171 58/78/199
f 33/79/202 87/75/174 86/73/173 43/77/201
s 20
f 19/131/203 88/129/175 87/130/176 33/132/204
s 6
f 20/61/66 89/57/177 88/58/178 19/62/67
s 4
f 20/121/72 21/122/71 90/120/180 89/119/179
s 5
f 91/26/182 90/25/181 21/29/74 22/30/73
s 25
f 92/146/184 91/145/183 22/147/205 39/148/206
s 19
f 50/93/207 93/89/185 92/90/186 39/94/208
f 94/91/191 93/89/185 50/93/207 63/95/209
f 95/92/192 94/91/191 63/95/209 40/96/210
s 27
f 23/155/211 96/153/193 95/154/194 40/156/212
s 5
f 81/12/196 96/11/195 23/15/82 24/16/81
s off
f 78/221/213 77/222/214 97/223/215 98/224/216
f 77/157/217 93/158/218 99/159/219 97/160/220
f 93/225/221 94/226/222 100/227/223 99/228/224
f 94/161/225 78/162/226 98/163/227 100/164/228
